<?xml version="1.0" encoding="UTF-8" standalone="no"?>
<!DOCTYPE svg PUBLIC "-//W3C//DTD SVG 1.1//EN" "http://www.w3.org/Graphics/SVG/1.1/DTD/svg11.dtd">
<svg xmlns="http://www.w3.org/2000/svg" version="1.1" viewBox="0.00 0.00 915.00 782.00">
<g stroke-width="2.00" fill="none" stroke-linecap="butt">
<path stroke="#a6a6a7" vector-effect="non-scaling-stroke" d="
  M 575.77 0.00
  Q 565.91 1.61 557.19 6.68
  Q 368.83 116.10 181.06 224.79
  Q 138.63 249.35 31.46 312.51
  C 26.70 315.31 22.71 318.44 19.27 322.45
  Q 7.46 336.21 3.06 353.31
  Q 1.69 358.64 1.54 367.58
  Q 1.01 399.07 0.91 426.00
  Q 0.75 467.42 0.75 520.32
  Q 0.75 533.37 0.51 638.50
  Q 0.51 640.55 0.51 641.50
  Q 0.65 669.38 0.00 697.25"
/>
<path stroke="#a6a6a7" vector-effect="non-scaling-stroke" d="
  M 581.00 0.00
  Q 587.64 1.18 592.17 5.09
  Q 598.39 10.46 602.70 18.62
  C 619.99 51.31 641.03 81.43 657.10 114.50
  C 664.30 129.31 674.98 140.11 692.82 139.20
  Q 701.53 138.75 709.33 136.70
  Q 732.39 130.63 756.95 123.27
  Q 767.28 120.17 777.17 118.34
  C 784.85 116.92 792.73 117.49 797.29 124.76
  C 801.41 131.33 803.73 139.58 805.66 146.80
  C 810.12 163.50 814.37 179.94 819.40 196.53
  C 826.66 220.53 833.43 244.44 838.58 268.64
  C 843.36 291.10 846.76 320.09 874.76 325.09
  Q 882.52 326.47 890.52 325.61
  C 892.89 325.36 895.05 326.10 896.85 327.66
  Q 906.49 335.99 911.40 347.81
  Q 913.47 352.79 913.45 357.04
  C 913.39 369.26 913.72 381.93 913.70 394.34
  C 913.69 407.96 913.98 422.74 913.98 435.25
  Q 914.02 551.21 914.17 656.00
  Q 914.17 657.52 914.17 659.00
  C 914.18 689.56 914.47 720.33 914.51 750.99
  C 914.54 768.02 907.87 780.09 889.50 781.44
  Q 886.08 781.69 882.66 782.00"
/>
<path stroke="#a6a6a7" vector-effect="non-scaling-stroke" d="
  M 846.74 782.00
  Q 594.87 781.57 343.00 781.73
  Q 341.27 781.73 339.50 781.72
  Q 245.71 781.48 156.00 781.48
  C 155.00 781.48 153.83 781.74 153.00 781.73
  Q 134.55 781.59 116.13 782.00"
/>
<path stroke="#a6a6a7" vector-effect="non-scaling-stroke" d="
  M 34.01 782.00
  Q 29.18 781.39 24.49 780.21
  C 7.87 776.03 1.91 764.01 0.00 747.96"
/>
<path stroke="#a6a6a7" vector-effect="non-scaling-stroke" d="
  M 474.22 109.87
  C 483.95 108.78 492.72 113.07 499.71 119.44
  C 504.39 123.71 508.53 128.83 513.75 132.32
  Q 523.04 138.53 535.18 142.26
  Q 561.92 150.47 589.82 150.43
  Q 607.54 150.40 630.03 149.55
  Q 636.44 149.31 643.75 149.52
  A 0.32 0.32 0.0 0 0 644.04 149.04
  L 575.69 30.83
  Q 575.45 30.41 575.03 30.65
  L 147.74 277.03
  Q 147.09 277.40 147.41 278.08
  L 151.46 286.73
  Q 151.75 287.35 152.37 287.07
  Q 184.75 272.28 193.41 267.40
  Q 271.86 223.14 364.07 169.81
  Q 413.89 141.00 449.34 119.83
  C 456.85 115.35 465.35 110.87 474.22 109.87"
/>
<path stroke="#a6a6a7" vector-effect="non-scaling-stroke" d="
  M 523.43 170.39
  Q 509.02 163.21 493.69 155.46
  C 485.63 151.39 471.75 145.84 463.39 148.98
  Q 454.43 152.35 441.61 158.55
  Q 414.37 171.73 386.30 188.41
  Q 348.58 210.83 310.05 234.11
  Q 309.59 234.39 309.82 234.88
  L 313.04 241.71
  Q 313.25 242.16 313.73 242.03
  L 528.34 184.46
  Q 528.97 184.30 529.09 183.66
  L 530.85 174.05
  Q 530.95 173.49 530.42 173.30
  Q 526.55 171.95 523.43 170.39"
/>
<path stroke="#a6a6a7" vector-effect="non-scaling-stroke" d="
  M 651.04 199.46
  C 671.36 199.16 683.12 212.95 689.72 230.69
  C 691.36 235.08 693.71 238.76 697.01 242.15
  C 703.18 248.50 713.64 256.45 722.14 255.36
  C 740.71 252.99 758.68 255.56 772.96 267.27
  Q 782.99 275.48 790.45 288.02
  Q 798.54 301.63 805.87 320.10
  A 1.58 1.58 0.0 0 0 807.46 321.09
  L 821.71 319.96
  A 0.34 0.34 0.0 0 0 822.01 319.54
  L 776.10 148.42
  A 0.31 0.30 -15.2 0 0 775.72 148.21
  L 158.25 313.80
  A 0.38 0.37 74.2 0 0 157.99 314.27
  L 160.88 324.17
  Q 161.05 324.76 161.67 324.66
  Q 179.47 321.76 196.26 318.45
  Q 202.10 317.30 208.54 315.60
  Q 431.20 256.73 627.99 202.76
  Q 639.42 199.62 651.04 199.46"
/>
<path stroke="#a6a6a7" vector-effect="non-scaling-stroke" d="
  M 654.12 239.66
  C 648.52 236.68 641.49 233.39 635.13 233.03
  Q 632.04 232.85 626.58 234.26
  C 526.80 259.93 427.12 286.75 328.13 313.50
  Q 327.71 313.61 327.75 314.04
  L 328.33 320.32
  Q 328.39 321.00 329.07 321.00
  L 762.95 321.00
  Q 763.46 321.00 763.34 320.50
  Q 759.49 304.57 748.26 295.10
  Q 744.01 291.51 738.02 287.87
  Q 691.75 259.73 654.12 239.66"
/>
<path stroke="#a6a6a7" vector-effect="non-scaling-stroke" d="
  M 882.75 355.13
  A 0.37 0.37 0.0 0 0 882.38 354.76
  L 33.36 354.76
  A 0.37 0.37 0.0 0 0 32.99 355.13
  L 32.99 750.63
  A 0.37 0.37 0.0 0 0 33.36 751.00
  L 882.38 751.00
  A 0.37 0.37 0.0 0 0 882.75 750.63
  L 882.75 355.13"
/>
<path stroke="#a6a6a7" vector-effect="non-scaling-stroke" d="
  M 78.01 651.10
  C 87.83 655.74 95.10 661.05 102.72 668.54
  C 112.85 678.49 121.47 689.69 131.22 700.37
  Q 139.02 708.90 153.92 723.03
  C 159.18 728.01 167.89 735.71 175.51 735.86
  Q 200.18 736.34 248.75 736.70
  Q 250.29 736.71 253.00 736.71
  Q 282.93 736.76 359.00 737.21
  Q 431.99 737.64 684.25 736.91
  C 699.27 736.87 714.38 736.72 729.67 736.79
  Q 739.62 736.84 745.24 735.83
  C 751.67 734.66 769.56 729.60 770.95 721.62
  C 775.60 694.80 788.73 672.59 812.80 659.01
  C 827.47 650.73 844.38 645.91 861.63 643.14
  Q 862.21 643.04 862.21 642.45
  Q 861.73 576.21 862.18 509.97
  Q 862.18 509.88 862.48 500.05
  Q 862.71 492.65 861.89 485.11
  C 860.00 467.64 849.91 457.92 833.80 452.51
  Q 823.54 449.07 822.58 448.64
  C 805.47 441.01 785.47 423.04 780.18 405.09
  C 775.72 389.96 769.50 375.58 753.28 370.27
  Q 745.97 367.87 737.02 367.37
  C 727.05 366.81 717.07 367.14 707.05 367.19
  Q 648.39 367.52 611.28 367.49
  C 609.81 367.49 608.36 367.73 606.91 367.73
  Q 553.21 367.76 499.50 367.75
  Q 498.27 367.75 497.00 367.76
  Q 464.88 368.00 432.75 367.86
  Q 430.96 367.85 429.25 367.85
  C 356.25 367.72 291.57 367.60 212.24 366.95
  C 199.74 366.84 187.29 366.39 174.95 367.59
  C 160.02 369.04 147.34 374.76 140.43 388.73
  Q 136.44 396.79 134.77 406.69
  C 132.80 418.31 125.75 428.71 117.25 436.55
  C 113.25 440.23 108.24 443.68 102.79 444.46
  C 83.90 447.14 65.70 454.36 57.36 472.35
  C 53.56 480.55 51.93 490.90 51.81 500.02
  Q 51.62 514.22 51.83 518.04
  Q 54.39 563.94 52.52 610.25
  Q 52.27 616.55 53.25 622.59
  C 55.54 636.73 65.70 645.27 78.01 651.10"
/>
<path stroke="#a6a6a7" vector-effect="non-scaling-stroke" d="
  M 189.42 398.35
  C 168.54 403.28 155.48 418.51 150.03 439.55
  C 147.79 448.21 142.99 454.63 135.76 460.12
  Q 131.83 463.11 128.49 463.93
  C 107.71 469.07 91.22 478.61 84.84 499.65
  C 81.74 509.87 81.05 521.09 81.00 531.59
  Q 80.88 556.27 80.84 581.95
  Q 80.83 590.44 83.74 601.78
  C 88.36 619.80 102.70 632.31 120.07 637.46
  Q 133.68 641.49 143.52 653.04
  C 150.80 661.59 155.73 670.05 158.94 680.35
  C 162.97 693.27 170.65 703.49 184.11 707.01
  C 198.18 710.69 213.39 708.84 227.59 708.99
  C 236.69 709.08 246.70 708.75 254.86 708.75
  Q 393.30 708.75 531.74 708.75
  C 532.65 708.75 533.67 708.46 534.74 708.46
  Q 585.08 708.39 633.24 708.71
  Q 635.22 708.72 637.25 708.72
  Q 661.24 708.68 691.75 709.44
  Q 705.32 709.77 716.65 708.70
  C 738.90 706.59 752.98 695.21 760.49 674.32
  C 761.81 670.66 762.71 666.74 764.73 663.45
  C 769.48 655.74 777.36 649.16 784.59 644.18
  Q 795.50 636.68 804.75 629.66
  C 810.44 625.35 817.57 622.74 823.92 619.66
  C 825.90 618.69 829.47 616.68 829.87 614.28
  Q 830.12 612.74 830.25 611.17
  C 832.47 584.44 834.31 553.89 833.13 527.29
  Q 832.45 511.78 831.12 501.05
  C 830.27 494.17 823.66 489.47 818.30 486.05
  C 810.26 480.93 800.99 476.02 793.81 469.42
  Q 783.96 460.36 774.81 451.68
  Q 765.88 443.22 759.09 432.52
  C 756.31 428.14 754.73 422.74 752.42 417.95
  C 745.01 402.57 733.57 397.02 717.47 395.91
  C 711.29 395.48 705.41 395.70 699.54 395.69
  Q 675.78 395.64 651.75 395.97
  Q 650.36 395.99 649.00 395.99
  Q 608.01 396.02 567.00 395.96
  C 565.64 395.96 564.38 396.21 563.00 396.21
  Q 448.07 396.42 370.00 396.00
  Q 368.50 396.00 367.00 396.00
  Q 320.41 396.17 275.75 395.77
  Q 273.64 395.75 271.75 395.76
  Q 250.48 395.89 231.27 395.58
  C 217.54 395.35 203.01 395.15 189.42 398.35"
/>
<path stroke="#a6a6a7" vector-effect="non-scaling-stroke" d="
  M 407.94 667.03
  C 472.15 695.30 545.07 664.32 572.94 600.74
  Q 577.12 591.20 579.43 581.58
  Q 590.82 533.98 566.87 491.63
  C 552.61 466.41 529.29 446.36 503.17 435.82
  C 468.39 421.79 430.48 423.91 397.62 442.57
  C 356.94 465.66 329.97 509.53 331.74 556.74
  C 333.56 605.16 363.93 647.65 407.94 667.03"
/>
<path stroke="#a6a6a7" vector-effect="non-scaling-stroke" d="
  M 635.65 571.42
  C 643.82 591.90 664.01 608.02 686.71 608.19
  Q 700.01 608.29 711.82 603.70
  C 728.86 597.07 738.63 583.23 743.48 565.23
  Q 746.17 555.25 744.43 545.19
  C 739.24 515.19 716.06 495.21 685.10 497.17
  C 654.46 499.11 637.97 517.78 633.21 546.75
  Q 631.05 559.88 635.65 571.42"
/>
<path stroke="#a6a6a7" vector-effect="non-scaling-stroke" d="
  M 253.64 601.23
  C 272.23 590.69 283.40 571.68 281.59 549.93
  C 279.54 525.35 267.75 505.80 243.70 499.01
  Q 234.58 496.44 223.45 497.42
  C 194.67 499.98 170.81 518.84 170.33 549.44
  C 169.95 573.53 179.66 594.58 203.19 603.60
  C 220.02 610.05 237.73 610.26 253.64 601.23"
/>
<path stroke="#a6a6a7" vector-effect="non-scaling-stroke" d="
  M 361.79 565.44
  C 369.30 614.33 412.01 650.79 462.23 648.34
  C 500.47 646.47 534.99 620.54 548.20 584.86
  Q 559.78 553.57 548.66 521.85
  C 540.41 498.34 522.58 478.37 501.02 466.61
  Q 472.69 451.16 441.90 456.57
  C 392.69 465.21 354.12 515.48 361.79 565.44"
/>
<path stroke="#a6a6a7" vector-effect="non-scaling-stroke" d="
  M 711.09 560.54
  Q 715.87 551.53 709.33 544.24
  C 703.26 537.47 695.79 532.03 689.25 526.30
  A 0.31 0.31 0.0 0 0 688.82 526.31
  Q 683.11 532.12 677.16 537.51
  C 672.24 541.98 660.79 553.17 664.85 560.37
  Q 666.93 564.06 670.01 567.13
  Q 676.99 574.10 684.45 581.12
  Q 688.35 584.79 691.96 588.91
  A 0.37 0.37 0.0 0 0 692.55 588.87
  Q 699.63 577.93 707.88 566.27
  C 709.12 564.52 710.08 562.45 711.09 560.54"
/>
<path stroke="#a6a6a7" vector-effect="non-scaling-stroke" d="
  M 203.84 543.58
  C 199.97 550.25 202.85 556.89 207.33 562.10
  Q 213.00 568.70 222.34 578.64
  Q 222.69 579.01 223.08 578.70
  Q 231.84 571.85 240.00 565.54
  Q 246.30 560.68 250.13 553.61
  C 251.54 551.01 251.14 547.98 249.73 545.49
  Q 246.44 539.70 241.39 533.67
  Q 234.11 524.97 227.33 515.39
  Q 227.14 515.13 226.95 515.37
  Q 219.00 525.17 210.57 534.40
  Q 206.71 538.63 203.84 543.58"
/>
</g>
<path fill="#ffffff" d="
  M 0.00 0.00
  L 575.77 0.00
  Q 565.91 1.61 557.19 6.68
  Q 368.83 116.10 181.06 224.79
  Q 138.63 249.35 31.46 312.51
  C 26.70 315.31 22.71 318.44 19.27 322.45
  Q 7.46 336.21 3.06 353.31
  Q 1.69 358.64 1.54 367.58
  Q 1.01 399.07 0.91 426.00
  Q 0.75 467.42 0.75 520.32
  Q 0.75 533.37 0.51 638.50
  Q 0.51 640.55 0.51 641.50
  Q 0.65 669.38 0.00 697.25
  L 0.00 0.00
  Z"
/>
<path fill="#4d4d4f" d="
  M 575.77 0.00
  L 581.00 0.00
  Q 587.64 1.18 592.17 5.09
  Q 598.39 10.46 602.70 18.62
  C 619.99 51.31 641.03 81.43 657.10 114.50
  C 664.30 129.31 674.98 140.11 692.82 139.20
  Q 701.53 138.75 709.33 136.70
  Q 732.39 130.63 756.95 123.27
  Q 767.28 120.17 777.17 118.34
  C 784.85 116.92 792.73 117.49 797.29 124.76
  C 801.41 131.33 803.73 139.58 805.66 146.80
  C 810.12 163.50 814.37 179.94 819.40 196.53
  C 826.66 220.53 833.43 244.44 838.58 268.64
  C 843.36 291.10 846.76 320.09 874.76 325.09
  Q 882.52 326.47 890.52 325.61
  C 892.89 325.36 895.05 326.10 896.85 327.66
  Q 906.49 335.99 911.40 347.81
  Q 913.47 352.79 913.45 357.04
  C 913.39 369.26 913.72 381.93 913.70 394.34
  C 913.69 407.96 913.98 422.74 913.98 435.25
  Q 914.02 551.21 914.17 656.00
  Q 914.17 657.52 914.17 659.00
  C 914.18 689.56 914.47 720.33 914.51 750.99
  C 914.54 768.02 907.87 780.09 889.50 781.44
  Q 886.08 781.69 882.66 782.00
  L 846.74 782.00
  Q 594.87 781.57 343.00 781.73
  Q 341.27 781.73 339.50 781.72
  Q 245.71 781.48 156.00 781.48
  C 155.00 781.48 153.83 781.74 153.00 781.73
  Q 134.55 781.59 116.13 782.00
  L 34.01 782.00
  Q 29.18 781.39 24.49 780.21
  C 7.87 776.03 1.91 764.01 0.00 747.96
  L 0.00 697.25
  Q 0.65 669.38 0.51 641.50
  Q 0.51 640.55 0.51 638.50
  Q 0.75 533.37 0.75 520.32
  Q 0.75 467.42 0.91 426.00
  Q 1.01 399.07 1.54 367.58
  Q 1.69 358.64 3.06 353.31
  Q 7.46 336.21 19.27 322.45
  C 22.71 318.44 26.70 315.31 31.46 312.51
  Q 138.63 249.35 181.06 224.79
  Q 368.83 116.10 557.19 6.68
  Q 565.91 1.61 575.77 0.00
  Z
  M 474.22 109.87
  C 483.95 108.78 492.72 113.07 499.71 119.44
  C 504.39 123.71 508.53 128.83 513.75 132.32
  Q 523.04 138.53 535.18 142.26
  Q 561.92 150.47 589.82 150.43
  Q 607.54 150.40 630.03 149.55
  Q 636.44 149.31 643.75 149.52
  A 0.32 0.32 0.0 0 0 644.04 149.04
  L 575.69 30.83
  Q 575.45 30.41 575.03 30.65
  L 147.74 277.03
  Q 147.09 277.40 147.41 278.08
  L 151.46 286.73
  Q 151.75 287.35 152.37 287.07
  Q 184.75 272.28 193.41 267.40
  Q 271.86 223.14 364.07 169.81
  Q 413.89 141.00 449.34 119.83
  C 456.85 115.35 465.35 110.87 474.22 109.87
  Z
  M 523.43 170.39
  Q 509.02 163.21 493.69 155.46
  C 485.63 151.39 471.75 145.84 463.39 148.98
  Q 454.43 152.35 441.61 158.55
  Q 414.37 171.73 386.30 188.41
  Q 348.58 210.83 310.05 234.11
  Q 309.59 234.39 309.82 234.88
  L 313.04 241.71
  Q 313.25 242.16 313.73 242.03
  L 528.34 184.46
  Q 528.97 184.30 529.09 183.66
  L 530.85 174.05
  Q 530.95 173.49 530.42 173.30
  Q 526.55 171.95 523.43 170.39
  Z
  M 651.04 199.46
  C 671.36 199.16 683.12 212.95 689.72 230.69
  C 691.36 235.08 693.71 238.76 697.01 242.15
  C 703.18 248.50 713.64 256.45 722.14 255.36
  C 740.71 252.99 758.68 255.56 772.96 267.27
  Q 782.99 275.48 790.45 288.02
  Q 798.54 301.63 805.87 320.10
  A 1.58 1.58 0.0 0 0 807.46 321.09
  L 821.71 319.96
  A 0.34 0.34 0.0 0 0 822.01 319.54
  L 776.10 148.42
  A 0.31 0.30 -15.2 0 0 775.72 148.21
  L 158.25 313.80
  A 0.38 0.37 74.2 0 0 157.99 314.27
  L 160.88 324.17
  Q 161.05 324.76 161.67 324.66
  Q 179.47 321.76 196.26 318.45
  Q 202.10 317.30 208.54 315.60
  Q 431.20 256.73 627.99 202.76
  Q 639.42 199.62 651.04 199.46
  Z
  M 654.12 239.66
  C 648.52 236.68 641.49 233.39 635.13 233.03
  Q 632.04 232.85 626.58 234.26
  C 526.80 259.93 427.12 286.75 328.13 313.50
  Q 327.71 313.61 327.75 314.04
  L 328.33 320.32
  Q 328.39 321.00 329.07 321.00
  L 762.95 321.00
  Q 763.46 321.00 763.34 320.50
  Q 759.49 304.57 748.26 295.10
  Q 744.01 291.51 738.02 287.87
  Q 691.75 259.73 654.12 239.66
  Z
  M 882.75 355.13
  A 0.37 0.37 0.0 0 0 882.38 354.76
  L 33.36 354.76
  A 0.37 0.37 0.0 0 0 32.99 355.13
  L 32.99 750.63
  A 0.37 0.37 0.0 0 0 33.36 751.00
  L 882.38 751.00
  A 0.37 0.37 0.0 0 0 882.75 750.63
  L 882.75 355.13
  Z"
/>
<path fill="#ffffff" d="
  M 581.00 0.00
  L 915.00 0.00
  L 915.00 782.00
  L 882.66 782.00
  Q 886.08 781.69 889.50 781.44
  C 907.87 780.09 914.54 768.02 914.51 750.99
  C 914.47 720.33 914.18 689.56 914.17 659.00
  Q 914.17 657.52 914.17 656.00
  Q 914.02 551.21 913.98 435.25
  C 913.98 422.74 913.69 407.96 913.70 394.34
  C 913.72 381.93 913.39 369.26 913.45 357.04
  Q 913.47 352.79 911.40 347.81
  Q 906.49 335.99 896.85 327.66
  C 895.05 326.10 892.89 325.36 890.52 325.61
  Q 882.52 326.47 874.76 325.09
  C 846.76 320.09 843.36 291.10 838.58 268.64
  C 833.43 244.44 826.66 220.53 819.40 196.53
  C 814.37 179.94 810.12 163.50 805.66 146.80
  C 803.73 139.58 801.41 131.33 797.29 124.76
  C 792.73 117.49 784.85 116.92 777.17 118.34
  Q 767.28 120.17 756.95 123.27
  Q 732.39 130.63 709.33 136.70
  Q 701.53 138.75 692.82 139.20
  C 674.98 140.11 664.30 129.31 657.10 114.50
  C 641.03 81.43 619.99 51.31 602.70 18.62
  Q 598.39 10.46 592.17 5.09
  Q 587.64 1.18 581.00 0.00
  Z"
/>
<path fill="#ffffff" d="
  M 499.71 119.44
  C 492.72 113.07 483.95 108.78 474.22 109.87
  C 465.35 110.87 456.85 115.35 449.34 119.83
  Q 413.89 141.00 364.07 169.81
  Q 271.86 223.14 193.41 267.40
  Q 184.75 272.28 152.37 287.07
  Q 151.75 287.35 151.46 286.73
  L 147.41 278.08
  Q 147.09 277.40 147.74 277.03
  L 575.03 30.65
  Q 575.45 30.41 575.69 30.83
  L 644.04 149.04
  A 0.32 0.32 0.0 0 1 643.75 149.52
  Q 636.44 149.31 630.03 149.55
  Q 607.54 150.40 589.82 150.43
  Q 561.92 150.47 535.18 142.26
  Q 523.04 138.53 513.75 132.32
  C 508.53 128.83 504.39 123.71 499.71 119.44
  Z"
/>
<path fill="#ffffff" d="
  M 523.43 170.39
  Q 526.55 171.95 530.42 173.30
  Q 530.95 173.49 530.85 174.05
  L 529.09 183.66
  Q 528.97 184.30 528.34 184.46
  L 313.73 242.03
  Q 313.25 242.16 313.04 241.71
  L 309.82 234.88
  Q 309.59 234.39 310.05 234.11
  Q 348.58 210.83 386.30 188.41
  Q 414.37 171.73 441.61 158.55
  Q 454.43 152.35 463.39 148.98
  C 471.75 145.84 485.63 151.39 493.69 155.46
  Q 509.02 163.21 523.43 170.39
  Z"
/>
<path fill="#ffffff" d="
  M 689.72 230.69
  C 683.12 212.95 671.36 199.16 651.04 199.46
  Q 639.42 199.62 627.99 202.76
  Q 431.20 256.73 208.54 315.60
  Q 202.10 317.30 196.26 318.45
  Q 179.47 321.76 161.67 324.66
  Q 161.05 324.76 160.88 324.17
  L 157.99 314.27
  A 0.38 0.37 74.2 0 1 158.25 313.80
  L 775.72 148.21
  A 0.31 0.30 -15.2 0 1 776.10 148.42
  L 822.01 319.54
  A 0.34 0.34 0.0 0 1 821.71 319.96
  L 807.46 321.09
  A 1.58 1.58 0.0 0 1 805.87 320.10
  Q 798.54 301.63 790.45 288.02
  Q 782.99 275.48 772.96 267.27
  C 758.68 255.56 740.71 252.99 722.14 255.36
  C 713.64 256.45 703.18 248.50 697.01 242.15
  C 693.71 238.76 691.36 235.08 689.72 230.69
  Z"
/>
<path fill="#ffffff" d="
  M 654.12 239.66
  Q 691.75 259.73 738.02 287.87
  Q 744.01 291.51 748.26 295.10
  Q 759.49 304.57 763.34 320.50
  Q 763.46 321.00 762.95 321.00
  L 329.07 321.00
  Q 328.39 321.00 328.33 320.32
  L 327.75 314.04
  Q 327.71 313.61 328.13 313.50
  C 427.12 286.75 526.80 259.93 626.58 234.26
  Q 632.04 232.85 635.13 233.03
  C 641.49 233.39 648.52 236.68 654.12 239.66
  Z"
/>
<path fill="#ffffff" d="
  M 882.75 750.63
  A 0.37 0.37 0.0 0 1 882.38 751.00
  L 33.36 751.00
  A 0.37 0.37 0.0 0 1 32.99 750.63
  L 32.99 355.13
  A 0.37 0.37 0.0 0 1 33.36 354.76
  L 882.38 354.76
  A 0.37 0.37 0.0 0 1 882.75 355.13
  L 882.75 750.63
  Z
  M 78.01 651.10
  C 87.83 655.74 95.10 661.05 102.72 668.54
  C 112.85 678.49 121.47 689.69 131.22 700.37
  Q 139.02 708.90 153.92 723.03
  C 159.18 728.01 167.89 735.71 175.51 735.86
  Q 200.18 736.34 248.75 736.70
  Q 250.29 736.71 253.00 736.71
  Q 282.93 736.76 359.00 737.21
  Q 431.99 737.64 684.25 736.91
  C 699.27 736.87 714.38 736.72 729.67 736.79
  Q 739.62 736.84 745.24 735.83
  C 751.67 734.66 769.56 729.60 770.95 721.62
  C 775.60 694.80 788.73 672.59 812.80 659.01
  C 827.47 650.73 844.38 645.91 861.63 643.14
  Q 862.21 643.04 862.21 642.45
  Q 861.73 576.21 862.18 509.97
  Q 862.18 509.88 862.48 500.05
  Q 862.71 492.65 861.89 485.11
  C 860.00 467.64 849.91 457.92 833.80 452.51
  Q 823.54 449.07 822.58 448.64
  C 805.47 441.01 785.47 423.04 780.18 405.09
  C 775.72 389.96 769.50 375.58 753.28 370.27
  Q 745.97 367.87 737.02 367.37
  C 727.05 366.81 717.07 367.14 707.05 367.19
  Q 648.39 367.52 611.28 367.49
  C 609.81 367.49 608.36 367.73 606.91 367.73
  Q 553.21 367.76 499.50 367.75
  Q 498.27 367.75 497.00 367.76
  Q 464.88 368.00 432.75 367.86
  Q 430.96 367.85 429.25 367.85
  C 356.25 367.72 291.57 367.60 212.24 366.95
  C 199.74 366.84 187.29 366.39 174.95 367.59
  C 160.02 369.04 147.34 374.76 140.43 388.73
  Q 136.44 396.79 134.77 406.69
  C 132.80 418.31 125.75 428.71 117.25 436.55
  C 113.25 440.23 108.24 443.68 102.79 444.46
  C 83.90 447.14 65.70 454.36 57.36 472.35
  C 53.56 480.55 51.93 490.90 51.81 500.02
  Q 51.62 514.22 51.83 518.04
  Q 54.39 563.94 52.52 610.25
  Q 52.27 616.55 53.25 622.59
  C 55.54 636.73 65.70 645.27 78.01 651.10
  Z"
/>
<path fill="#4d4d4f" d="
  M 78.01 651.10
  C 65.70 645.27 55.54 636.73 53.25 622.59
  Q 52.27 616.55 52.52 610.25
  Q 54.39 563.94 51.83 518.04
  Q 51.62 514.22 51.81 500.02
  C 51.93 490.90 53.56 480.55 57.36 472.35
  C 65.70 454.36 83.90 447.14 102.79 444.46
  C 108.24 443.68 113.25 440.23 117.25 436.55
  C 125.75 428.71 132.80 418.31 134.77 406.69
  Q 136.44 396.79 140.43 388.73
  C 147.34 374.76 160.02 369.04 174.95 367.59
  C 187.29 366.39 199.74 366.84 212.24 366.95
  C 291.57 367.60 356.25 367.72 429.25 367.85
  Q 430.96 367.85 432.75 367.86
  Q 464.88 368.00 497.00 367.76
  Q 498.27 367.75 499.50 367.75
  Q 553.21 367.76 606.91 367.73
  C 608.36 367.73 609.81 367.49 611.28 367.49
  Q 648.39 367.52 707.05 367.19
  C 717.07 367.14 727.05 366.81 737.02 367.37
  Q 745.97 367.87 753.28 370.27
  C 769.50 375.58 775.72 389.96 780.18 405.09
  C 785.47 423.04 805.47 441.01 822.58 448.64
  Q 823.54 449.07 833.80 452.51
  C 849.91 457.92 860.00 467.64 861.89 485.11
  Q 862.71 492.65 862.48 500.05
  Q 862.18 509.88 862.18 509.97
  Q 861.73 576.21 862.21 642.45
  Q 862.21 643.04 861.63 643.14
  C 844.38 645.91 827.47 650.73 812.80 659.01
  C 788.73 672.59 775.60 694.80 770.95 721.62
  C 769.56 729.60 751.67 734.66 745.24 735.83
  Q 739.62 736.84 729.67 736.79
  C 714.38 736.72 699.27 736.87 684.25 736.91
  Q 431.99 737.64 359.00 737.21
  Q 282.93 736.76 253.00 736.71
  Q 250.29 736.71 248.75 736.70
  Q 200.18 736.34 175.51 735.86
  C 167.89 735.71 159.18 728.01 153.92 723.03
  Q 139.02 708.90 131.22 700.37
  C 121.47 689.69 112.85 678.49 102.72 668.54
  C 95.10 661.05 87.83 655.74 78.01 651.10
  Z
  M 189.42 398.35
  C 168.54 403.28 155.48 418.51 150.03 439.55
  C 147.79 448.21 142.99 454.63 135.76 460.12
  Q 131.83 463.11 128.49 463.93
  C 107.71 469.07 91.22 478.61 84.84 499.65
  C 81.74 509.87 81.05 521.09 81.00 531.59
  Q 80.88 556.27 80.84 581.95
  Q 80.83 590.44 83.74 601.78
  C 88.36 619.80 102.70 632.31 120.07 637.46
  Q 133.68 641.49 143.52 653.04
  C 150.80 661.59 155.73 670.05 158.94 680.35
  C 162.97 693.27 170.65 703.49 184.11 707.01
  C 198.18 710.69 213.39 708.84 227.59 708.99
  C 236.69 709.08 246.70 708.75 254.86 708.75
  Q 393.30 708.75 531.74 708.75
  C 532.65 708.75 533.67 708.46 534.74 708.46
  Q 585.08 708.39 633.24 708.71
  Q 635.22 708.72 637.25 708.72
  Q 661.24 708.68 691.75 709.44
  Q 705.32 709.77 716.65 708.70
  C 738.90 706.59 752.98 695.21 760.49 674.32
  C 761.81 670.66 762.71 666.74 764.73 663.45
  C 769.48 655.74 777.36 649.16 784.59 644.18
  Q 795.50 636.68 804.75 629.66
  C 810.44 625.35 817.57 622.74 823.92 619.66
  C 825.90 618.69 829.47 616.68 829.87 614.28
  Q 830.12 612.74 830.25 611.17
  C 832.47 584.44 834.31 553.89 833.13 527.29
  Q 832.45 511.78 831.12 501.05
  C 830.27 494.17 823.66 489.47 818.30 486.05
  C 810.26 480.93 800.99 476.02 793.81 469.42
  Q 783.96 460.36 774.81 451.68
  Q 765.88 443.22 759.09 432.52
  C 756.31 428.14 754.73 422.74 752.42 417.95
  C 745.01 402.57 733.57 397.02 717.47 395.91
  C 711.29 395.48 705.41 395.70 699.54 395.69
  Q 675.78 395.64 651.75 395.97
  Q 650.36 395.99 649.00 395.99
  Q 608.01 396.02 567.00 395.96
  C 565.64 395.96 564.38 396.21 563.00 396.21
  Q 448.07 396.42 370.00 396.00
  Q 368.50 396.00 367.00 396.00
  Q 320.41 396.17 275.75 395.77
  Q 273.64 395.75 271.75 395.76
  Q 250.48 395.89 231.27 395.58
  C 217.54 395.35 203.01 395.15 189.42 398.35
  Z"
/>
<path fill="#ffffff" d="
  M 150.03 439.55
  C 155.48 418.51 168.54 403.28 189.42 398.35
  C 203.01 395.15 217.54 395.35 231.27 395.58
  Q 250.48 395.89 271.75 395.76
  Q 273.64 395.75 275.75 395.77
  Q 320.41 396.17 367.00 396.00
  Q 368.50 396.00 370.00 396.00
  Q 448.07 396.42 563.00 396.21
  C 564.38 396.21 565.64 395.96 567.00 395.96
  Q 608.01 396.02 649.00 395.99
  Q 650.36 395.99 651.75 395.97
  Q 675.78 395.64 699.54 395.69
  C 705.41 395.70 711.29 395.48 717.47 395.91
  C 733.57 397.02 745.01 402.57 752.42 417.95
  C 754.73 422.74 756.31 428.14 759.09 432.52
  Q 765.88 443.22 774.81 451.68
  Q 783.96 460.36 793.81 469.42
  C 800.99 476.02 810.26 480.93 818.30 486.05
  C 823.66 489.47 830.27 494.17 831.12 501.05
  Q 832.45 511.78 833.13 527.29
  C 834.31 553.89 832.47 584.44 830.25 611.17
  Q 830.12 612.74 829.87 614.28
  C 829.47 616.68 825.90 618.69 823.92 619.66
  C 817.57 622.74 810.44 625.35 804.75 629.66
  Q 795.50 636.68 784.59 644.18
  C 777.36 649.16 769.48 655.74 764.73 663.45
  C 762.71 666.74 761.81 670.66 760.49 674.32
  C 752.98 695.21 738.90 706.59 716.65 708.70
  Q 705.32 709.77 691.75 709.44
  Q 661.24 708.68 637.25 708.72
  Q 635.22 708.72 633.24 708.71
  Q 585.08 708.39 534.74 708.46
  C 533.67 708.46 532.65 708.75 531.74 708.75
  Q 393.30 708.75 254.86 708.75
  C 246.70 708.75 236.69 709.08 227.59 708.99
  C 213.39 708.84 198.18 710.69 184.11 707.01
  C 170.65 703.49 162.97 693.27 158.94 680.35
  C 155.73 670.05 150.80 661.59 143.52 653.04
  Q 133.68 641.49 120.07 637.46
  C 102.70 632.31 88.36 619.80 83.74 601.78
  Q 80.83 590.44 80.84 581.95
  Q 80.88 556.27 81.00 531.59
  C 81.05 521.09 81.74 509.87 84.84 499.65
  C 91.22 478.61 107.71 469.07 128.49 463.93
  Q 131.83 463.11 135.76 460.12
  C 142.99 454.63 147.79 448.21 150.03 439.55
  Z
  M 407.94 667.03
  C 472.15 695.30 545.07 664.32 572.94 600.74
  Q 577.12 591.20 579.43 581.58
  Q 590.82 533.98 566.87 491.63
  C 552.61 466.41 529.29 446.36 503.17 435.82
  C 468.39 421.79 430.48 423.91 397.62 442.57
  C 356.94 465.66 329.97 509.53 331.74 556.74
  C 333.56 605.16 363.93 647.65 407.94 667.03
  Z
  M 635.65 571.42
  C 643.82 591.90 664.01 608.02 686.71 608.19
  Q 700.01 608.29 711.82 603.70
  C 728.86 597.07 738.63 583.23 743.48 565.23
  Q 746.17 555.25 744.43 545.19
  C 739.24 515.19 716.06 495.21 685.10 497.17
  C 654.46 499.11 637.97 517.78 633.21 546.75
  Q 631.05 559.88 635.65 571.42
  Z
  M 253.64 601.23
  C 272.23 590.69 283.40 571.68 281.59 549.93
  C 279.54 525.35 267.75 505.80 243.70 499.01
  Q 234.58 496.44 223.45 497.42
  C 194.67 499.98 170.81 518.84 170.33 549.44
  C 169.95 573.53 179.66 594.58 203.19 603.60
  C 220.02 610.05 237.73 610.26 253.64 601.23
  Z"
/>
<path fill="#4d4d4f" d="
  M 407.94 667.03
  C 363.93 647.65 333.56 605.16 331.74 556.74
  C 329.97 509.53 356.94 465.66 397.62 442.57
  C 430.48 423.91 468.39 421.79 503.17 435.82
  C 529.29 446.36 552.61 466.41 566.87 491.63
  Q 590.82 533.98 579.43 581.58
  Q 577.12 591.20 572.94 600.74
  C 545.07 664.32 472.15 695.30 407.94 667.03
  Z
  M 361.79 565.44
  C 369.30 614.33 412.01 650.79 462.23 648.34
  C 500.47 646.47 534.99 620.54 548.20 584.86
  Q 559.78 553.57 548.66 521.85
  C 540.41 498.34 522.58 478.37 501.02 466.61
  Q 472.69 451.16 441.90 456.57
  C 392.69 465.21 354.12 515.48 361.79 565.44
  Z"
/>
<path fill="#ffffff" d="
  M 462.23 648.34
  C 412.01 650.79 369.30 614.33 361.79 565.44
  C 354.12 515.48 392.69 465.21 441.90 456.57
  Q 472.69 451.16 501.02 466.61
  C 522.58 478.37 540.41 498.34 548.66 521.85
  Q 559.78 553.57 548.20 584.86
  C 534.99 620.54 500.47 646.47 462.23 648.34
  Z"
/>
<path fill="#4d4d4f" d="
  M 686.71 608.19
  C 664.01 608.02 643.82 591.90 635.65 571.42
  Q 631.05 559.88 633.21 546.75
  C 637.97 517.78 654.46 499.11 685.10 497.17
  C 716.06 495.21 739.24 515.19 744.43 545.19
  Q 746.17 555.25 743.48 565.23
  C 738.63 583.23 728.86 597.07 711.82 603.70
  Q 700.01 608.29 686.71 608.19
  Z
  M 711.09 560.54
  Q 715.87 551.53 709.33 544.24
  C 703.26 537.47 695.79 532.03 689.25 526.30
  A 0.31 0.31 0.0 0 0 688.82 526.31
  Q 683.11 532.12 677.16 537.51
  C 672.24 541.98 660.79 553.17 664.85 560.37
  Q 666.93 564.06 670.01 567.13
  Q 676.99 574.10 684.45 581.12
  Q 688.35 584.79 691.96 588.91
  A 0.37 0.37 0.0 0 0 692.55 588.87
  Q 699.63 577.93 707.88 566.27
  C 709.12 564.52 710.08 562.45 711.09 560.54
  Z"
/>
<path fill="#4d4d4f" d="
  M 281.59 549.93
  C 283.40 571.68 272.23 590.69 253.64 601.23
  C 237.73 610.26 220.02 610.05 203.19 603.60
  C 179.66 594.58 169.95 573.53 170.33 549.44
  C 170.81 518.84 194.67 499.98 223.45 497.42
  Q 234.58 496.44 243.70 499.01
  C 267.75 505.80 279.54 525.35 281.59 549.93
  Z
  M 203.84 543.58
  C 199.97 550.25 202.85 556.89 207.33 562.10
  Q 213.00 568.70 222.34 578.64
  Q 222.69 579.01 223.08 578.70
  Q 231.84 571.85 240.00 565.54
  Q 246.30 560.68 250.13 553.61
  C 251.54 551.01 251.14 547.98 249.73 545.49
  Q 246.44 539.70 241.39 533.67
  Q 234.11 524.97 227.33 515.39
  Q 227.14 515.13 226.95 515.37
  Q 219.00 525.17 210.57 534.40
  Q 206.71 538.63 203.84 543.58
  Z"
/>
<path fill="#ffffff" d="
  M 203.84 543.58
  Q 206.71 538.63 210.57 534.40
  Q 219.00 525.17 226.95 515.37
  Q 227.14 515.13 227.33 515.39
  Q 234.11 524.97 241.39 533.67
  Q 246.44 539.70 249.73 545.49
  C 251.14 547.98 251.54 551.01 250.13 553.61
  Q 246.30 560.68 240.00 565.54
  Q 231.84 571.85 223.08 578.70
  Q 222.69 579.01 222.34 578.64
  Q 213.00 568.70 207.33 562.10
  C 202.85 556.89 199.97 550.25 203.84 543.58
  Z"
/>
<path fill="#ffffff" d="
  M 711.09 560.54
  C 710.08 562.45 709.12 564.52 707.88 566.27
  Q 699.63 577.93 692.55 588.87
  A 0.37 0.37 0.0 0 1 691.96 588.91
  Q 688.35 584.79 684.45 581.12
  Q 676.99 574.10 670.01 567.13
  Q 666.93 564.06 664.85 560.37
  C 660.79 553.17 672.24 541.98 677.16 537.51
  Q 683.11 532.12 688.82 526.31
  A 0.31 0.31 0.0 0 1 689.25 526.30
  C 695.79 532.03 703.26 537.47 709.33 544.24
  Q 715.87 551.53 711.09 560.54
  Z"
/>
<path fill="#ffffff" d="
  M 0.00 747.96
  C 1.91 764.01 7.87 776.03 24.49 780.21
  Q 29.18 781.39 34.01 782.00
  L 0.00 782.00
  L 0.00 747.96
  Z"
/>
<path fill="#ffffff" d="
  M 846.74 782.00
  L 116.13 782.00
  Q 134.55 781.59 153.00 781.73
  C 153.83 781.74 155.00 781.48 156.00 781.48
  Q 245.71 781.48 339.50 781.72
  Q 341.27 781.73 343.00 781.73
  Q 594.87 781.57 846.74 782.00
  Z"
/>
</svg>
